<mxfile host="app.diagrams.net" agent="Mozilla/5.0 (Windows NT 10.0; Win64; x64) AppleWebKit/537.36 (KHTML, like Gecko) Chrome/128.0.0.0 Safari/537.36" version="24.7.16">
  <diagram name="Page-1" id="ePrFDiuHB3qh3XwZTEGm">
    <mxGraphModel dx="1434" dy="772" grid="1" gridSize="10" guides="1" tooltips="1" connect="1" arrows="1" fold="1" page="1" pageScale="1" pageWidth="850" pageHeight="1100" background="#FFFFFF" math="0" shadow="0">
      <root>
        <mxCell id="0" />
        <mxCell id="1" parent="0" />
        <mxCell id="kUjiIbYB0c5EXnLtFEeJ-5" style="edgeStyle=orthogonalEdgeStyle;rounded=0;orthogonalLoop=1;jettySize=auto;html=1;" parent="1" source="kUjiIbYB0c5EXnLtFEeJ-1" target="kUjiIbYB0c5EXnLtFEeJ-4" edge="1">
          <mxGeometry relative="1" as="geometry">
            <Array as="points">
              <mxPoint x="760" y="240" />
            </Array>
          </mxGeometry>
        </mxCell>
        <mxCell id="kUjiIbYB0c5EXnLtFEeJ-6" value="Autenticação" style="edgeLabel;html=1;align=center;verticalAlign=middle;resizable=0;points=[];" parent="kUjiIbYB0c5EXnLtFEeJ-5" vertex="1" connectable="0">
          <mxGeometry x="0.2203" y="-4" relative="1" as="geometry">
            <mxPoint as="offset" />
          </mxGeometry>
        </mxCell>
        <mxCell id="kUjiIbYB0c5EXnLtFEeJ-13" style="edgeStyle=orthogonalEdgeStyle;rounded=0;orthogonalLoop=1;jettySize=auto;html=1;entryX=1;entryY=0.25;entryDx=0;entryDy=0;" parent="1" source="kUjiIbYB0c5EXnLtFEeJ-1" target="kUjiIbYB0c5EXnLtFEeJ-4" edge="1">
          <mxGeometry relative="1" as="geometry">
            <Array as="points">
              <mxPoint x="770" y="220" />
            </Array>
          </mxGeometry>
        </mxCell>
        <mxCell id="kUjiIbYB0c5EXnLtFEeJ-14" value="Com o Token - Dados dos Veiculos" style="edgeLabel;html=1;align=center;verticalAlign=middle;resizable=0;points=[];" parent="kUjiIbYB0c5EXnLtFEeJ-13" vertex="1" connectable="0">
          <mxGeometry x="0.1877" y="-3" relative="1" as="geometry">
            <mxPoint as="offset" />
          </mxGeometry>
        </mxCell>
        <mxCell id="kUjiIbYB0c5EXnLtFEeJ-1" value="" style="image;html=1;image=img/lib/clip_art/computers/MacBook_128x128.png" parent="1" vertex="1">
          <mxGeometry x="730" y="280" width="60" height="60" as="geometry" />
        </mxCell>
        <mxCell id="kUjiIbYB0c5EXnLtFEeJ-3" style="edgeStyle=orthogonalEdgeStyle;rounded=0;orthogonalLoop=1;jettySize=auto;html=1;entryX=1;entryY=0.5;entryDx=0;entryDy=0;" parent="1" source="kUjiIbYB0c5EXnLtFEeJ-2" target="kUjiIbYB0c5EXnLtFEeJ-1" edge="1">
          <mxGeometry relative="1" as="geometry" />
        </mxCell>
        <mxCell id="kUjiIbYB0c5EXnLtFEeJ-2" value="" style="image;html=1;image=img/lib/clip_art/people/Suit_Man_Black_128x128.png" parent="1" vertex="1">
          <mxGeometry x="770" y="380" width="80" height="80" as="geometry" />
        </mxCell>
        <mxCell id="kUjiIbYB0c5EXnLtFEeJ-11" style="edgeStyle=orthogonalEdgeStyle;rounded=0;orthogonalLoop=1;jettySize=auto;html=1;" parent="1" source="kUjiIbYB0c5EXnLtFEeJ-4" edge="1">
          <mxGeometry relative="1" as="geometry">
            <mxPoint x="465" y="350" as="targetPoint" />
          </mxGeometry>
        </mxCell>
        <mxCell id="kUjiIbYB0c5EXnLtFEeJ-16" style="edgeStyle=orthogonalEdgeStyle;rounded=0;orthogonalLoop=1;jettySize=auto;html=1;entryX=0.5;entryY=0;entryDx=0;entryDy=0;" parent="1" source="kUjiIbYB0c5EXnLtFEeJ-4" target="kUjiIbYB0c5EXnLtFEeJ-15" edge="1">
          <mxGeometry relative="1" as="geometry">
            <Array as="points">
              <mxPoint x="465" y="190" />
              <mxPoint x="230" y="190" />
            </Array>
          </mxGeometry>
        </mxCell>
        <mxCell id="kUjiIbYB0c5EXnLtFEeJ-17" value="Endpoint Veiculos" style="edgeLabel;html=1;align=center;verticalAlign=middle;resizable=0;points=[];" parent="kUjiIbYB0c5EXnLtFEeJ-16" vertex="1" connectable="0">
          <mxGeometry x="0.0634" y="3" relative="1" as="geometry">
            <mxPoint as="offset" />
          </mxGeometry>
        </mxCell>
        <mxCell id="kUjiIbYB0c5EXnLtFEeJ-4" value="" style="image;html=1;image=img/lib/clip_art/computers/Server_Rack_128x128.png" parent="1" vertex="1">
          <mxGeometry x="425" y="200" width="80" height="80" as="geometry" />
        </mxCell>
        <mxCell id="kUjiIbYB0c5EXnLtFEeJ-7" value="Email: admin@teste.com&lt;div&gt;senha: 123456&lt;/div&gt;" style="text;html=1;align=center;verticalAlign=middle;resizable=0;points=[];autosize=1;fillColor=#dae8fc;strokeColor=#6c8ebf;" parent="1" vertex="1">
          <mxGeometry x="730" y="460" width="160" height="40" as="geometry" />
        </mxCell>
        <mxCell id="kUjiIbYB0c5EXnLtFEeJ-12" style="edgeStyle=orthogonalEdgeStyle;rounded=0;orthogonalLoop=1;jettySize=auto;html=1;" parent="1" source="kUjiIbYB0c5EXnLtFEeJ-8" target="kUjiIbYB0c5EXnLtFEeJ-1" edge="1">
          <mxGeometry relative="1" as="geometry" />
        </mxCell>
        <mxCell id="kUjiIbYB0c5EXnLtFEeJ-8" value="" style="image;html=1;image=img/lib/clip_art/computers/Software_128x128.png" parent="1" vertex="1">
          <mxGeometry x="425" y="350" width="80" height="80" as="geometry" />
        </mxCell>
        <mxCell id="kUjiIbYB0c5EXnLtFEeJ-9" value="Pegar os dados do User&lt;div&gt;e retornar um Token JWT&lt;/div&gt;" style="text;html=1;align=center;verticalAlign=middle;resizable=0;points=[];autosize=1;strokeColor=#6c8ebf;fillColor=#dae8fc;" parent="1" vertex="1">
          <mxGeometry x="385" y="430" width="160" height="40" as="geometry" />
        </mxCell>
        <mxCell id="kUjiIbYB0c5EXnLtFEeJ-15" value="" style="image;html=1;image=img/lib/clip_art/computers/Software_128x128.png" parent="1" vertex="1">
          <mxGeometry x="190" y="220" width="80" height="80" as="geometry" />
        </mxCell>
        <mxCell id="kUjiIbYB0c5EXnLtFEeJ-18" value="GET /veiculos [Lista paginada]&lt;div&gt;GET /veiculos/1 [um veiculo]&lt;/div&gt;&lt;div&gt;POST /veiculos [Cadastrar um Veiculo]&lt;/div&gt;&lt;div&gt;PUT /veiculo/1 [Alterar o veiculo]&lt;/div&gt;&lt;div&gt;DELETE /veiculo/1 [Apagar]&lt;/div&gt;" style="text;html=1;align=left;verticalAlign=middle;resizable=0;points=[];autosize=1;strokeColor=#6c8ebf;fillColor=#dae8fc;" parent="1" vertex="1">
          <mxGeometry x="90" y="300" width="230" height="90" as="geometry" />
        </mxCell>
        <mxCell id="kUjiIbYB0c5EXnLtFEeJ-19" value="POST /login [email,senha]&lt;div&gt;POST /administrador/criar [Rule (Adm, editor)]&lt;/div&gt;" style="text;html=1;align=left;verticalAlign=middle;resizable=0;points=[];autosize=1;strokeColor=#6c8ebf;fillColor=#dae8fc;" parent="1" vertex="1">
          <mxGeometry x="350" y="470" width="270" height="40" as="geometry" />
        </mxCell>
      </root>
    </mxGraphModel>
  </diagram>
</mxfile>
